<mxfile host="app.diagrams.net" modified="2024-03-11T16:59:57.281Z" agent="Mozilla/5.0 (Windows NT 10.0; Win64; x64) AppleWebKit/537.36 (KHTML, like Gecko) Chrome/122.0.0.0 Safari/537.36" etag="QZNWgTLw1vcvBGSTjo87" version="24.0.4" type="device">
  <diagram name="Сторінка-1" id="hSzl3-HuwwGc-FZwH7ZJ">
    <mxGraphModel dx="2389" dy="877" grid="1" gridSize="10" guides="1" tooltips="1" connect="1" arrows="1" fold="1" page="1" pageScale="1" pageWidth="827" pageHeight="1169" math="0" shadow="0">
      <root>
        <mxCell id="0" />
        <mxCell id="1" parent="0" />
        <mxCell id="kar2XGi9CuGCInj-O3wA-1" value="" style="whiteSpace=wrap;html=1;fillColor=#ffe6cc;strokeColor=#d79b00;" parent="1" vertex="1">
          <mxGeometry x="80" y="220" width="330" height="740" as="geometry" />
        </mxCell>
        <mxCell id="XEXKMiqWzEjNIahfFLdH-11" style="rounded=0;orthogonalLoop=1;jettySize=auto;html=1;exitX=0.5;exitY=0.5;exitDx=0;exitDy=0;exitPerimeter=0;entryX=0;entryY=0.5;entryDx=0;entryDy=0;strokeWidth=2;endArrow=none;endFill=0;" parent="1" source="kar2XGi9CuGCInj-O3wA-2" target="kar2XGi9CuGCInj-O3wA-5" edge="1">
          <mxGeometry relative="1" as="geometry" />
        </mxCell>
        <mxCell id="XEXKMiqWzEjNIahfFLdH-12" style="rounded=0;orthogonalLoop=1;jettySize=auto;html=1;exitX=0.5;exitY=0.5;exitDx=0;exitDy=0;exitPerimeter=0;entryX=0;entryY=0.5;entryDx=0;entryDy=0;strokeWidth=2;endArrow=none;endFill=0;" parent="1" source="kar2XGi9CuGCInj-O3wA-2" target="kar2XGi9CuGCInj-O3wA-7" edge="1">
          <mxGeometry relative="1" as="geometry" />
        </mxCell>
        <mxCell id="XEXKMiqWzEjNIahfFLdH-15" style="rounded=0;orthogonalLoop=1;jettySize=auto;html=1;exitX=0.5;exitY=0.5;exitDx=0;exitDy=0;exitPerimeter=0;entryX=0;entryY=0.5;entryDx=0;entryDy=0;strokeWidth=2;endArrow=none;endFill=0;" parent="1" source="kar2XGi9CuGCInj-O3wA-2" target="kar2XGi9CuGCInj-O3wA-90" edge="1">
          <mxGeometry relative="1" as="geometry" />
        </mxCell>
        <mxCell id="XEXKMiqWzEjNIahfFLdH-18" style="rounded=0;orthogonalLoop=1;jettySize=auto;html=1;exitX=0.5;exitY=0.5;exitDx=0;exitDy=0;exitPerimeter=0;entryX=0;entryY=0.5;entryDx=0;entryDy=0;strokeWidth=2;endArrow=none;endFill=0;" parent="1" source="kar2XGi9CuGCInj-O3wA-2" target="kar2XGi9CuGCInj-O3wA-55" edge="1">
          <mxGeometry relative="1" as="geometry" />
        </mxCell>
        <mxCell id="XEXKMiqWzEjNIahfFLdH-21" style="rounded=0;orthogonalLoop=1;jettySize=auto;html=1;exitX=0.5;exitY=0.5;exitDx=0;exitDy=0;exitPerimeter=0;entryX=0;entryY=0.5;entryDx=0;entryDy=0;strokeWidth=2;endArrow=none;endFill=0;" parent="1" source="kar2XGi9CuGCInj-O3wA-2" target="XEXKMiqWzEjNIahfFLdH-20" edge="1">
          <mxGeometry relative="1" as="geometry" />
        </mxCell>
        <mxCell id="kar2XGi9CuGCInj-O3wA-5" value="&lt;h2&gt;Прочитати інструкцію&lt;/h2&gt;" style="ellipse;whiteSpace=wrap;html=1;" parent="1" vertex="1">
          <mxGeometry x="130" y="234" width="140" height="70" as="geometry" />
        </mxCell>
        <mxCell id="XEXKMiqWzEjNIahfFLdH-16" style="edgeStyle=orthogonalEdgeStyle;rounded=0;orthogonalLoop=1;jettySize=auto;html=1;exitX=0.5;exitY=1;exitDx=0;exitDy=0;entryX=0.5;entryY=0;entryDx=0;entryDy=0;dashed=1;strokeWidth=2;" parent="1" source="kar2XGi9CuGCInj-O3wA-7" target="XEXKMiqWzEjNIahfFLdH-2" edge="1">
          <mxGeometry relative="1" as="geometry" />
        </mxCell>
        <mxCell id="kar2XGi9CuGCInj-O3wA-7" value="&lt;h2&gt;Почати гру&lt;/h2&gt;" style="ellipse;whiteSpace=wrap;html=1;" parent="1" vertex="1">
          <mxGeometry x="130" y="330" width="140" height="70" as="geometry" />
        </mxCell>
        <mxCell id="kar2XGi9CuGCInj-O3wA-55" value="&lt;h2&gt;Читати повідомлення про закінчення гри&lt;/h2&gt;" style="ellipse;whiteSpace=wrap;html=1;spacingTop=4;" parent="1" vertex="1">
          <mxGeometry x="120" y="760" width="230" height="90" as="geometry" />
        </mxCell>
        <mxCell id="kar2XGi9CuGCInj-O3wA-90" value="&lt;h2&gt;Вийти з гри&lt;/h2&gt;" style="ellipse;whiteSpace=wrap;html=1;" parent="1" vertex="1">
          <mxGeometry x="138" y="870" width="130" height="70" as="geometry" />
        </mxCell>
        <mxCell id="XEXKMiqWzEjNIahfFLdH-17" style="edgeStyle=orthogonalEdgeStyle;rounded=0;orthogonalLoop=1;jettySize=auto;html=1;exitX=0.5;exitY=1;exitDx=0;exitDy=0;entryX=0.5;entryY=0;entryDx=0;entryDy=0;strokeWidth=2;dashed=1;" parent="1" source="XEXKMiqWzEjNIahfFLdH-2" target="XEXKMiqWzEjNIahfFLdH-3" edge="1">
          <mxGeometry relative="1" as="geometry" />
        </mxCell>
        <mxCell id="XEXKMiqWzEjNIahfFLdH-2" value="&lt;h2&gt;Обрати імплант персонажа&lt;/h2&gt;" style="ellipse;whiteSpace=wrap;html=1;spacingTop=4;" parent="1" vertex="1">
          <mxGeometry x="112.5" y="450" width="175" height="70" as="geometry" />
        </mxCell>
        <mxCell id="XEXKMiqWzEjNIahfFLdH-3" value="&lt;h2&gt;Проходити певний рівень&lt;/h2&gt;" style="ellipse;whiteSpace=wrap;html=1;spacingTop=-6;" parent="1" vertex="1">
          <mxGeometry x="125" y="570" width="150" height="80" as="geometry" />
        </mxCell>
        <mxCell id="XEXKMiqWzEjNIahfFLdH-20" value="&lt;h2&gt;Знайти карту пам&#39;яті&lt;/h2&gt;" style="ellipse;whiteSpace=wrap;html=1;spacingTop=5;" parent="1" vertex="1">
          <mxGeometry x="230" y="660" width="150" height="80" as="geometry" />
        </mxCell>
        <mxCell id="kar2XGi9CuGCInj-O3wA-2" value="&lt;h3&gt;Користувач&lt;/h3&gt;" style="shape=umlActor;verticalLabelPosition=bottom;verticalAlign=top;html=1;outlineConnect=0;fillColor=#008a00;strokeColor=#005700;fontColor=#ffffff;strokeWidth=2;" parent="1" vertex="1">
          <mxGeometry x="-140" y="550" width="70" height="120" as="geometry" />
        </mxCell>
        <mxCell id="XEXKMiqWzEjNIahfFLdH-24" value="Користувач" style="text;html=1;align=center;verticalAlign=middle;whiteSpace=wrap;rounded=0;fontStyle=1" parent="1" vertex="1">
          <mxGeometry x="-145" y="670" width="80" height="30" as="geometry" />
        </mxCell>
        <mxCell id="XEXKMiqWzEjNIahfFLdH-25" value="&amp;lt;include&amp;gt;" style="text;html=1;align=center;verticalAlign=middle;whiteSpace=wrap;rounded=0;fontStyle=1" parent="1" vertex="1">
          <mxGeometry x="200" y="410" width="80" height="30" as="geometry" />
        </mxCell>
        <mxCell id="XEXKMiqWzEjNIahfFLdH-26" value="&amp;lt;include&amp;gt;" style="text;html=1;align=center;verticalAlign=middle;whiteSpace=wrap;rounded=0;fontStyle=1" parent="1" vertex="1">
          <mxGeometry x="207.5" y="530" width="80" height="30" as="geometry" />
        </mxCell>
      </root>
    </mxGraphModel>
  </diagram>
</mxfile>
